<svg xmlns="http://www.w3.org/2000/svg" width="183" height="81" viewBox="0 0 183 81" class="editor-view__logo-preview" data-v-8d8ae3dd="" data-v-b9d2a614=""><svg id="mark" viewBox="0 0 100 100" width="81" height="81" x="0" y="0" data-v-8d8ae3dd="" style="fill: rgb(0, 0, 0);"><rect x="0" y="0" width="100%" height="100%" fill="none" data-v-8d8ae3dd=""></rect><g data-v-8d8ae3dd=""><g xmlns="http://www.w3.org/2000/svg"><polygon fill="none" stroke="#000000" stroke-width="8.5039" stroke-miterlimit="10" points="50,80 37.01,72.5 24.019,65    24.019,50 24.019,35 37.01,27.5 50,20 62.99,27.5 75.981,35 75.981,50 75.981,65 62.99,72.5  "></polygon><polygon points="50,80 37.01,72.5 62.99,27.5 75.981,35 75.981,65  "></polygon></g></g></svg><svg id="name" viewBox="0 0 86.923828125 32.703125" width="86" height="32.355555555555554" x="97" y="24.322222222222223" data-v-8d8ae3dd="" style="fill: rgb(31, 19, 19);"><rect x="0" y="0" width="100%" height="100%" fill="none" data-v-8d8ae3dd=""></rect><g data-v-8d8ae3dd=""><path xmlns="http://www.w3.org/2000/svg" d="M26.64 0L26.64 5.46L16.62 5.46L16.62 32.70L9.88 32.70L9.88 5.46L0 5.46L0 0L26.64 0ZM57.07 0L57.07 32.70L50.33 32.70L37.22 11.19L37.22 32.70L30.48 32.70L30.48 0L37.22 0L50.36 21.56L50.36 0L57.07 0ZM86.92 0L86.92 5.46L76.91 5.46L76.91 32.70L70.17 32.70L70.17 5.46L60.29 5.46L60.29 0L86.92 0Z"></path></g></svg><!----></svg>